<svg xmlns="http://www.w3.org/2000/svg" style="display: none;">
  <!-- Dashboard Icon -->
  <symbol id="icon-dashboard" viewBox="0 0 24 24">
    <path d="M3 13h8V3H3v10zm0 8h8v-6H3v6zm10 0h8V11h-8v10zm0-18v6h8V3h-8z" fill="currentColor"/>
  </symbol>
  
  <!-- Analytics Icon -->
  <symbol id="icon-analytics" viewBox="0 0 24 24">
    <path d="M3 13h2v8H3v-8zm4-6h2v14H7V7zm4-4h2v18h-2V3zm4 8h2v10h-2V11z" fill="currentColor"/>
  </symbol>
  
  <!-- Reports Icon -->
  <symbol id="icon-reports" viewBox="0 0 24 24">
    <path d="M14 2H6c-1.1 0-1.99.9-1.99 2L4 20c0 1.1.89 2 2 2h12c1.1 0 2-.9 2-2V8l-6-6zm2 16H8v-2h8v2zm0-4H8v-2h8v2zm-3-5V3.5L18.5 9H13z" fill="currentColor"/>
  </symbol>
  
  <!-- Users Icon -->
  <symbol id="icon-users" viewBox="0 0 24 24">
    <path d="M16 4c0-1.11.89-2 2-2s2 .89 2 2-.89 2-2 2-2-.89-2-2zm4 18v-6h2.5l-2.54-7.63A1.5 1.5 0 0 0 18.54 8H16c-.8 0-1.54.37-2.01.99L12 11.5 10.01 8.99C9.54 8.37 8.8 8 8 8H5.46a1.5 1.5 0 0 0-1.42 1.37L1.5 16H4v6h2v-6h2.5l2.5 6h2l2.5-6H16v6h2zM6 8c1.1 0 2-.9 2-2s-.9-2-2-2-2 .9-2 2 .9 2 2 2z" fill="currentColor"/>
  </symbol>
  
  <!-- Buildings Icon -->
  <symbol id="icon-buildings" viewBox="0 0 24 24">
    <path d="M12 7V3H2v18h20V7H12zM6 19H4v-2h2v2zm0-4H4v-2h2v2zm0-4H4V9h2v2zm0-4H4V5h2v2zm4 12H8v-2h2v2zm0-4H8v-2h2v2zm0-4H8V9h2v2zm0-4H8V5h2v2zm10 12h-8v-2h2v-2h-2v-2h2v-2h-2V9h8v10zm-2-8h-2v2h2v-2zm0 4h-2v2h2v-2z" fill="currentColor"/>
  </symbol>
  
  <!-- Apartments Icon -->
  <symbol id="icon-apartments" viewBox="0 0 24 24">
    <path d="M10 20v-6h4v6h5v-8h3L12 3 2 12h3v8z" fill="currentColor"/>
  </symbol>
  
  <!-- Meters Icon -->
  <symbol id="icon-meters" viewBox="0 0 24 24">
    <path d="M11 21h-1l1-7H7.5c-.58 0-.57-.32-.38-.66.19-.34.05-.08.07-.12C8.48 10.94 10.42 7.54 13 3h1l-1 7h3.5c.49 0 .56.33.47.51l-.07.15C12.95 17.96 11 21 11 21z" fill="currentColor"/>
  </symbol>
  
  <!-- Payments Icon -->
  <symbol id="icon-payments" viewBox="0 0 24 24">
    <path d="M20 4H4c-1.11 0-1.99.89-1.99 2L2 18c0 1.11.89 2 2 2h16c1.11 0 2-.89 2-2V6c0-1.11-.89-2-2-2zm0 14H4v-6h16v6zm0-10H4V6h16v2z" fill="currentColor"/>
  </symbol>
  
  <!-- Bills Icon -->
  <symbol id="icon-bills" viewBox="0 0 24 24">
    <path d="M14 2H6c-1.1 0-1.99.9-1.99 2L4 20c0 1.1.89 2 2 2h12c1.1 0 2-.9 2-2V8l-6-6zm2 16H8v-2h8v2zm0-4H8v-2h8v2zm-3-5V3.5L18.5 9H13z" fill="currentColor"/>
  </symbol>
  
  <!-- Debts Icon -->
  <symbol id="icon-debts" viewBox="0 0 24 24">
    <path d="M1 21h22L12 2 1 21zm12-3h-2v-2h2v2zm0-4h-2v-4h2v4z" fill="currentColor"/>
  </symbol>
  
  <!-- Maintenance Icon -->
  <symbol id="icon-maintenance" viewBox="0 0 24 24">
    <path d="M22.7 19l-9.1-9.1c.9-2.3.4-5-1.5-6.9-2-2-5-2.4-7.4-1.3L9 6 6 9 1.6 4.7C.4 7.1.9 10.1 2.9 12.1c1.9 1.9 4.6 2.4 6.9 1.5l9.1 9.1c.4.4 1 .4 1.4 0l2.3-2.3c.5-.4.5-1.1.1-1.4z" fill="currentColor"/>
  </symbol>
  
  <!-- Inspections Icon -->
  <symbol id="icon-inspections" viewBox="0 0 24 24">
    <path d="M15.5 14h-.79l-.28-.27C15.41 12.59 16 11.11 16 9.5 16 5.91 13.09 3 9.5 3S3 5.91 3 9.5 5.91 16 9.5 16c1.61 0 3.09-.59 4.23-1.57l.27.28v.79l5 4.99L20.49 19l-4.99-5zm-6 0C7.01 14 5 11.99 5 9.5S7.01 5 9.5 5 14 7.01 14 9.5 11.99 14 9.5 14z" fill="currentColor"/>
  </symbol>
  
  <!-- Personnel Icon -->
  <symbol id="icon-personnel" viewBox="0 0 24 24">
    <path d="M12 12c2.21 0 4-1.79 4-4s-1.79-4-4-4-4 1.79-4 4 1.79 4 4 4zm0 2c-2.67 0-8 1.34-8 4v2h16v-2c0-2.66-5.33-4-8-4z" fill="currentColor"/>
  </symbol>
  
  <!-- Settings Icon -->
  <symbol id="icon-settings" viewBox="0 0 24 24">
    <path d="M19.14,12.94c0.04-0.3,0.06-0.61,0.06-0.94c0-0.32-0.02-0.64-0.07-0.94l2.03-1.58c0.18-0.14,0.23-0.41,0.12-0.61 l-1.92-3.32c-0.12-0.22-0.37-0.29-0.59-0.22l-2.39,0.96c-0.5-0.38-1.03-0.7-1.62-0.94L14.4,2.81c-0.04-0.24-0.24-0.41-0.48-0.41 h-3.84c-0.24,0-0.43,0.17-0.47,0.41L9.25,5.35C8.66,5.59,8.12,5.92,7.63,6.29L5.24,5.33c-0.22-0.08-0.47,0-0.59,0.22L2.74,8.87 C2.62,9.08,2.66,9.34,2.86,9.48l2.03,1.58C4.84,11.36,4.82,11.69,4.82,12s0.02,0.64,0.07,0.94l-2.03,1.58 c-0.18,0.14-0.23,0.41-0.12,0.61l1.92,3.32c0.12,0.22,0.37,0.29,0.59,0.22l2.39-0.96c0.5,0.38,1.03,0.7,1.62,0.94l0.36,2.54 c0.05,0.24,0.24,0.41,0.48,0.41h3.84c0.24,0,0.44-0.17,0.47-0.41l0.36-2.54c0.59-0.24,1.13-0.56,1.62-0.94l2.39,0.96 c0.22,0.08,0.47,0,0.59-0.22l1.92-3.32c0.12-0.22,0.07-0.47-0.12-0.61L19.14,12.94z M12,15.6c-1.98,0-3.6-1.62-3.6-3.6 s1.62-3.6,3.6-3.6s3.6,1.62,3.6,3.6S13.98,15.6,12,15.6z" fill="currentColor"/>
  </symbol>
  
  <!-- Logout Icon -->
  <symbol id="icon-logout" viewBox="0 0 24 24">
    <path d="M17 7l-1.41 1.41L18.17 11H8v2h10.17l-2.58 2.58L17 17l5-5zM4 5h8V3H4c-1.1 0-2 .9-2 2v14c0 1.1.9 2 2 2h8v-2H4V5z" fill="currentColor"/>
  </symbol>
</svg>










